# Blender 4.1.1
# www.blender.org
mtllib Clip.mtl
o Clip
v -0.002441 0.000200 -0.006060
v -0.002587 0.000347 -0.006060
v -0.002788 0.000401 -0.006060
v -0.002988 0.000347 -0.006060
v -0.003135 0.000200 -0.006060
v -0.003189 0.000000 -0.006060
v -0.003135 -0.000200 -0.006060
v -0.002988 -0.000347 -0.006060
v -0.002788 -0.000401 -0.006060
v -0.002587 -0.000347 -0.006060
v -0.002441 -0.000200 -0.006060
v -0.002387 -0.000000 -0.006060
v -0.002442 0.000200 0.011012
v -0.002588 0.000347 0.011026
v -0.002788 0.000401 0.011046
v -0.002987 0.000347 0.011066
v -0.003133 0.000200 0.011080
v -0.003187 0.000000 0.011085
v -0.003133 -0.000200 0.011080
v -0.002987 -0.000347 0.011066
v -0.002788 -0.000401 0.011046
v -0.002588 -0.000347 0.011026
v -0.002442 -0.000200 0.011012
v -0.002389 -0.000000 0.011007
v -0.002270 0.000200 0.011906
v -0.002405 0.000347 0.011962
v -0.002590 0.000401 0.012038
v -0.002776 0.000347 0.012115
v -0.002911 0.000200 0.012171
v -0.002961 0.000000 0.012192
v -0.002911 -0.000200 0.012171
v -0.002776 -0.000347 0.012115
v -0.002590 -0.000401 0.012038
v -0.002405 -0.000347 0.011962
v -0.002270 -0.000200 0.011906
v -0.002220 -0.000000 0.011885
v -0.001783 0.000200 0.012634
v -0.001886 0.000347 0.012738
v -0.002028 0.000401 0.012880
v -0.002170 0.000347 0.013022
v -0.002274 0.000200 0.013126
v -0.002312 0.000000 0.013164
v -0.002274 -0.000200 0.013126
v -0.002170 -0.000347 0.013022
v -0.002028 -0.000401 0.012880
v -0.001886 -0.000347 0.012738
v -0.001783 -0.000200 0.012634
v -0.001745 -0.000000 0.012596
v -0.001054 0.000200 0.013121
v -0.001110 0.000347 0.013257
v -0.001187 0.000401 0.013442
v -0.001263 0.000347 0.013627
v -0.001320 0.000200 0.013763
v -0.001340 0.000000 0.013813
v -0.001320 -0.000200 0.013763
v -0.001263 -0.000347 0.013627
v -0.001187 -0.000401 0.013442
v -0.001110 -0.000347 0.013257
v -0.001054 -0.000200 0.013121
v -0.001033 -0.000000 0.013072
v -0.000160 0.000200 0.013294
v -0.000174 0.000347 0.013440
v -0.000194 0.000401 0.013640
v -0.000214 0.000347 0.013839
v -0.000228 0.000200 0.013985
v -0.000233 0.000000 0.014039
v -0.000228 -0.000200 0.013985
v -0.000214 -0.000347 0.013839
v -0.000194 -0.000401 0.013640
v -0.000174 -0.000347 0.013440
v -0.000160 -0.000200 0.013294
v -0.000155 -0.000000 0.013241
v 0.000964 0.000200 0.013294
v 0.000979 0.000347 0.013440
v 0.000998 0.000401 0.013640
v 0.001018 0.000347 0.013839
v 0.001032 0.000200 0.013985
v 0.001037 0.000000 0.014039
v 0.001032 -0.000200 0.013985
v 0.001018 -0.000347 0.013839
v 0.000998 -0.000401 0.013640
v 0.000979 -0.000347 0.013440
v 0.000964 -0.000200 0.013294
v 0.000959 -0.000000 0.013241
v 0.001858 0.000200 0.013121
v 0.001914 0.000347 0.013257
v 0.001991 0.000401 0.013442
v 0.002067 0.000347 0.013627
v 0.002124 0.000200 0.013763
v 0.002144 0.000000 0.013813
v 0.002124 -0.000200 0.013763
v 0.002067 -0.000347 0.013627
v 0.001991 -0.000401 0.013442
v 0.001914 -0.000347 0.013257
v 0.001858 -0.000200 0.013121
v 0.001837 -0.000000 0.013072
v 0.002587 0.000200 0.012634
v 0.002690 0.000347 0.012738
v 0.002832 0.000401 0.012880
v 0.002974 0.000347 0.013022
v 0.003078 0.000200 0.013126
v 0.003116 0.000000 0.013164
v 0.003078 -0.000200 0.013126
v 0.002974 -0.000347 0.013022
v 0.002832 -0.000401 0.012880
v 0.002690 -0.000347 0.012738
v 0.002587 -0.000200 0.012634
v 0.002549 -0.000000 0.012596
v 0.003074 0.000200 0.011906
v 0.003209 0.000347 0.011962
v 0.003394 0.000401 0.012038
v 0.003580 0.000347 0.012115
v 0.003715 0.000200 0.012171
v 0.003765 0.000000 0.012192
v 0.003715 -0.000200 0.012171
v 0.003580 -0.000347 0.012115
v 0.003394 -0.000401 0.012038
v 0.003209 -0.000347 0.011962
v 0.003074 -0.000200 0.011906
v 0.003024 -0.000000 0.011885
v 0.003246 0.000200 0.011012
v 0.003392 0.000347 0.011026
v 0.003592 0.000401 0.011046
v 0.003791 0.000347 0.011066
v 0.003938 0.000200 0.011080
v 0.003991 0.000000 0.011085
v 0.003938 -0.000200 0.011080
v 0.003791 -0.000347 0.011066
v 0.003592 -0.000401 0.011046
v 0.003392 -0.000347 0.011026
v 0.003246 -0.000200 0.011012
v 0.003193 -0.000000 0.011007
v 0.003246 0.000200 -0.011468
v 0.003392 0.000347 -0.011483
v 0.003592 0.000401 -0.011502
v 0.003791 0.000347 -0.011522
v 0.003938 0.000200 -0.011536
v 0.003991 0.000000 -0.011541
v 0.003938 -0.000200 -0.011536
v 0.003791 -0.000347 -0.011522
v 0.003592 -0.000401 -0.011502
v 0.003392 -0.000347 -0.011483
v 0.003246 -0.000200 -0.011468
v 0.003193 -0.000000 -0.011463
v 0.003103 0.000200 -0.012215
v 0.003239 0.000347 -0.012271
v 0.003424 0.000401 -0.012348
v 0.003609 0.000347 -0.012424
v 0.003745 0.000200 -0.012481
v 0.003794 0.000000 -0.012501
v 0.003745 -0.000200 -0.012481
v 0.003609 -0.000347 -0.012424
v 0.003424 -0.000401 -0.012348
v 0.003239 -0.000347 -0.012271
v 0.003103 -0.000200 -0.012215
v 0.003053 -0.000000 -0.012194
v 0.002699 0.000200 -0.012819
v 0.002803 0.000347 -0.012923
v 0.002945 0.000401 -0.013064
v 0.003087 0.000347 -0.013206
v 0.003190 0.000200 -0.013310
v 0.003228 0.000000 -0.013348
v 0.003190 -0.000200 -0.013310
v 0.003087 -0.000347 -0.013206
v 0.002945 -0.000401 -0.013064
v 0.002803 -0.000347 -0.012923
v 0.002699 -0.000200 -0.012819
v 0.002661 -0.000000 -0.012781
v 0.002095 0.000200 -0.013223
v 0.002151 0.000347 -0.013358
v 0.002228 0.000401 -0.013543
v 0.002305 0.000347 -0.013729
v 0.002361 0.000200 -0.013864
v 0.002381 0.000000 -0.013914
v 0.002361 -0.000200 -0.013864
v 0.002305 -0.000347 -0.013729
v 0.002228 -0.000401 -0.013543
v 0.002151 -0.000347 -0.013358
v 0.002095 -0.000200 -0.013223
v 0.002075 -0.000000 -0.013173
v 0.001348 0.000200 -0.013366
v 0.001363 0.000347 -0.013512
v 0.001383 0.000401 -0.013712
v 0.001402 0.000347 -0.013911
v 0.001417 0.000200 -0.014057
v 0.001422 0.000000 -0.014111
v 0.001417 -0.000200 -0.014057
v 0.001402 -0.000347 -0.013911
v 0.001383 -0.000401 -0.013712
v 0.001363 -0.000347 -0.013512
v 0.001348 -0.000200 -0.013366
v 0.001343 -0.000000 -0.013313
v 0.000352 0.000200 -0.013366
v 0.000337 0.000347 -0.013512
v 0.000318 0.000401 -0.013712
v 0.000298 0.000347 -0.013911
v 0.000284 0.000200 -0.014057
v 0.000279 0.000000 -0.014111
v 0.000284 -0.000200 -0.014057
v 0.000298 -0.000347 -0.013911
v 0.000318 -0.000401 -0.013712
v 0.000337 -0.000347 -0.013512
v 0.000352 -0.000200 -0.013366
v 0.000357 -0.000000 -0.013313
v -0.000395 0.000200 -0.013223
v -0.000451 0.000347 -0.013358
v -0.000528 0.000401 -0.013543
v -0.000604 0.000347 -0.013729
v -0.000661 0.000200 -0.013864
v -0.000681 0.000000 -0.013914
v -0.000661 -0.000200 -0.013864
v -0.000604 -0.000347 -0.013729
v -0.000528 -0.000401 -0.013543
v -0.000451 -0.000347 -0.013358
v -0.000395 -0.000200 -0.013223
v -0.000374 -0.000000 -0.013173
v -0.000999 0.000200 -0.012819
v -0.001103 0.000347 -0.012923
v -0.001244 0.000401 -0.013064
v -0.001386 0.000347 -0.013206
v -0.001490 0.000200 -0.013310
v -0.001528 0.000000 -0.013348
v -0.001490 -0.000200 -0.013310
v -0.001386 -0.000347 -0.013206
v -0.001244 -0.000401 -0.013064
v -0.001103 -0.000347 -0.012923
v -0.000999 -0.000200 -0.012819
v -0.000961 -0.000000 -0.012781
v -0.001403 0.000200 -0.012215
v -0.001538 0.000347 -0.012271
v -0.001723 0.000401 -0.012348
v -0.001909 0.000347 -0.012424
v -0.002044 0.000200 -0.012481
v -0.002094 0.000000 -0.012501
v -0.002044 -0.000200 -0.012481
v -0.001909 -0.000347 -0.012424
v -0.001723 -0.000401 -0.012348
v -0.001538 -0.000347 -0.012271
v -0.001403 -0.000200 -0.012215
v -0.001353 -0.000000 -0.012194
v -0.001546 0.000200 -0.011468
v -0.001692 0.000347 -0.011483
v -0.001892 0.000401 -0.011502
v -0.002091 0.000347 -0.011522
v -0.002237 0.000200 -0.011536
v -0.002291 0.000000 -0.011541
v -0.002237 -0.000200 -0.011536
v -0.002091 -0.000347 -0.011522
v -0.001892 -0.000401 -0.011502
v -0.001692 -0.000347 -0.011483
v -0.001546 -0.000200 -0.011468
v -0.001493 -0.000000 -0.011463
v -0.001546 0.000200 0.004356
v -0.001692 0.000347 0.004370
v -0.001892 0.000401 0.004390
v -0.002091 0.000347 0.004410
v -0.002237 0.000200 0.004424
v -0.002291 0.000000 0.004429
v -0.002237 -0.000200 0.004424
v -0.002091 -0.000347 0.004410
v -0.001892 -0.000401 0.004390
v -0.001692 -0.000347 0.004370
v -0.001546 -0.000200 0.004356
v -0.001493 -0.000000 0.004351
v -0.001419 0.000200 0.005020
v -0.001555 0.000347 0.005076
v -0.001740 0.000401 0.005152
v -0.001925 0.000347 0.005229
v -0.002061 0.000200 0.005285
v -0.002110 0.000000 0.005306
v -0.002061 -0.000200 0.005285
v -0.001925 -0.000347 0.005229
v -0.001740 -0.000401 0.005152
v -0.001555 -0.000347 0.005076
v -0.001419 -0.000200 0.005020
v -0.001369 -0.000000 0.004999
v -0.001063 0.000200 0.005553
v -0.001166 0.000347 0.005657
v -0.001308 0.000401 0.005799
v -0.001450 0.000347 0.005940
v -0.001554 0.000200 0.006044
v -0.001592 0.000000 0.006082
v -0.001554 -0.000200 0.006044
v -0.001450 -0.000347 0.005940
v -0.001308 -0.000401 0.005799
v -0.001166 -0.000347 0.005657
v -0.001063 -0.000200 0.005553
v -0.001025 -0.000000 0.005515
v -0.000529 0.000200 0.005910
v -0.000585 0.000347 0.006045
v -0.000662 0.000401 0.006230
v -0.000739 0.000347 0.006416
v -0.000795 0.000200 0.006551
v -0.000815 0.000000 0.006601
v -0.000795 -0.000200 0.006551
v -0.000739 -0.000347 0.006416
v -0.000662 -0.000401 0.006230
v -0.000585 -0.000347 0.006045
v -0.000529 -0.000200 0.005910
v -0.000508 -0.000000 0.005860
v 0.000134 0.000200 0.006036
v 0.000120 0.000347 0.006183
v 0.000100 0.000401 0.006382
v 0.000081 0.000347 0.006582
v 0.000066 0.000200 0.006728
v 0.000061 0.000000 0.006781
v 0.000066 -0.000200 0.006728
v 0.000081 -0.000347 0.006582
v 0.000100 -0.000401 0.006382
v 0.000120 -0.000347 0.006183
v 0.000134 -0.000200 0.006036
v 0.000140 -0.000000 0.005983
v 0.000713 0.000200 0.006036
v 0.000728 0.000347 0.006183
v 0.000747 0.000401 0.006382
v 0.000767 0.000347 0.006582
v 0.000782 0.000200 0.006728
v 0.000787 0.000000 0.006781
v 0.000782 -0.000200 0.006728
v 0.000767 -0.000347 0.006582
v 0.000747 -0.000401 0.006382
v 0.000728 -0.000347 0.006183
v 0.000713 -0.000200 0.006036
v 0.000708 -0.000000 0.005983
v 0.001377 0.000200 0.005910
v 0.001433 0.000347 0.006045
v 0.001510 0.000401 0.006230
v 0.001587 0.000347 0.006416
v 0.001643 0.000200 0.006551
v 0.001663 0.000000 0.006601
v 0.001643 -0.000200 0.006551
v 0.001587 -0.000347 0.006416
v 0.001510 -0.000401 0.006230
v 0.001433 -0.000347 0.006045
v 0.001377 -0.000200 0.005910
v 0.001356 -0.000000 0.005860
v 0.001910 0.000200 0.005553
v 0.002014 0.000347 0.005657
v 0.002156 0.000401 0.005799
v 0.002298 0.000347 0.005940
v 0.002402 0.000200 0.006044
v 0.002440 0.000000 0.006082
v 0.002402 -0.000200 0.006044
v 0.002298 -0.000347 0.005940
v 0.002156 -0.000401 0.005799
v 0.002014 -0.000347 0.005657
v 0.001910 -0.000200 0.005553
v 0.001872 -0.000000 0.005515
v 0.002267 0.000200 0.005020
v 0.002403 0.000347 0.005076
v 0.002588 0.000401 0.005152
v 0.002773 0.000347 0.005229
v 0.002909 0.000200 0.005285
v 0.002958 0.000000 0.005306
v 0.002909 -0.000200 0.005285
v 0.002773 -0.000347 0.005229
v 0.002588 -0.000401 0.005152
v 0.002403 -0.000347 0.005076
v 0.002267 -0.000200 0.005020
v 0.002217 -0.000000 0.004999
v 0.002394 0.000200 0.004356
v 0.002540 0.000347 0.004370
v 0.002739 0.000401 0.004390
v 0.002939 0.000347 0.004410
v 0.003085 0.000200 0.004424
v 0.003139 0.000000 0.004429
v 0.003085 -0.000200 0.004424
v 0.002939 -0.000347 0.004410
v 0.002739 -0.000401 0.004390
v 0.002540 -0.000347 0.004370
v 0.002394 -0.000200 0.004356
v 0.002340 -0.000000 0.004351
v 0.002392 0.000200 -0.004055
v 0.002539 0.000347 -0.004055
v 0.002739 0.000401 -0.004055
v 0.002940 0.000347 -0.004055
v 0.003087 0.000200 -0.004055
v 0.003140 0.000000 -0.004055
v 0.003087 -0.000200 -0.004055
v 0.002940 -0.000347 -0.004055
v 0.002739 -0.000401 -0.004055
v 0.002539 -0.000347 -0.004055
v 0.002392 -0.000200 -0.004055
v 0.002338 -0.000000 -0.004055
v -0.002788 0.000000 -0.006060
v 0.002739 -0.000000 -0.004055
vn 0.8665 0.4992 0.0001
vn 0.8586 0.5060 -0.0823
vn 0.9955 -0.0000 -0.0950
vn 1.0000 -0.0000 0.0001
vn 0.7080 0.7063 0.0001
vn 0.7048 0.7061 -0.0681
vn 0.2594 0.9658 -0.0000
vn 0.2582 0.9658 -0.0254
vn 0.2582 0.9658 -0.0253
vn -0.2594 0.9658 -0.0000
vn -0.2581 0.9658 0.0257
vn -0.8665 0.4992 0.0001
vn -0.8660 0.4923 0.0873
vn -0.7043 0.7063 0.0709
vn -0.7080 0.7063 0.0001
vn -1.0000 -0.0000 0.0001
vn -0.9949 -0.0000 0.1004
vn -0.8665 -0.4992 0.0001
vn -0.8660 -0.4923 0.0873
vn -0.7080 -0.7063 0.0001
vn -0.7043 -0.7063 0.0709
vn -0.2594 -0.9658 -0.0000
vn -0.2581 -0.9658 0.0257
vn 0.2594 -0.9658 -0.0000
vn 0.2582 -0.9658 -0.0253
vn 0.2582 -0.9658 -0.0254
vn 0.8665 -0.4992 0.0001
vn 0.8586 -0.5060 -0.0823
vn 0.7048 -0.7061 -0.0681
vn 0.7080 -0.7063 0.0001
vn 0.7922 0.5160 -0.3259
vn 0.9250 -0.0000 -0.3799
vn 0.6524 0.7085 -0.2690
vn 0.2383 0.9662 -0.0987
vn 0.2383 0.9662 -0.0986
vn -0.2382 0.9662 0.0990
vn -0.8057 0.4878 0.3359
vn -0.6516 0.7083 0.2716
vn -0.9230 -0.0000 0.3849
vn -0.8058 -0.4878 0.3359
vn -0.6516 -0.7083 0.2716
vn -0.2382 -0.9662 0.0990
vn 0.2383 -0.9662 -0.0986
vn 0.2383 -0.9662 -0.0987
vn 0.7922 -0.5160 -0.3259
vn 0.6524 -0.7085 -0.2690
vn 0.6064 0.5145 -0.6064
vn 0.7071 -0.0000 -0.7071
vn 0.5000 0.7071 -0.5000
vn 0.1830 0.9659 -0.1830
vn -0.1830 0.9659 0.1830
vn -0.6178 0.4866 0.6178
vn -0.5000 0.7071 0.5000
vn -0.7071 -0.0000 0.7071
vn -0.6178 -0.4866 0.6178
vn -0.5000 -0.7071 0.5000
vn -0.1830 -0.9659 0.1830
vn 0.1830 -0.9659 -0.1830
vn 0.6064 -0.5145 -0.6064
vn 0.5000 -0.7071 -0.5000
vn 0.3259 0.5160 -0.7922
vn 0.3799 -0.0000 -0.9250
vn 0.2690 0.7085 -0.6524
vn 0.0987 0.9662 -0.2383
vn 0.0986 0.9662 -0.2383
vn -0.0990 0.9662 0.2382
vn -0.3359 0.4878 0.8057
vn -0.2716 0.7083 0.6516
vn -0.3849 -0.0000 0.9230
vn -0.3359 -0.4878 0.8058
vn -0.2716 -0.7083 0.6516
vn -0.0990 -0.9662 0.2382
vn 0.0986 -0.9662 -0.2383
vn 0.0987 -0.9662 -0.2383
vn 0.3259 -0.5160 -0.7922
vn 0.2690 -0.7085 -0.6524
vn 0.0824 0.5056 -0.8588
vn 0.0950 -0.0000 -0.9955
vn 0.0681 0.7057 -0.7052
vn 0.0254 0.9657 -0.2585
vn 0.0253 0.9657 -0.2585
vn -0.0257 0.9657 0.2584
vn -0.0873 0.4919 0.8663
vn -0.0709 0.7059 0.7047
vn -0.1004 -0.0000 0.9949
vn -0.0873 -0.4919 0.8663
vn -0.0709 -0.7059 0.7047
vn -0.0257 -0.9657 0.2584
vn 0.0253 -0.9657 -0.2585
vn 0.0254 -0.9657 -0.2585
vn 0.0824 -0.5056 -0.8588
vn 0.0681 -0.7057 -0.7052
vn -0.0824 0.5056 -0.8588
vn -0.0950 -0.0000 -0.9955
vn -0.0681 0.7057 -0.7052
vn -0.0254 0.9657 -0.2585
vn -0.0253 0.9657 -0.2585
vn 0.0257 0.9657 0.2584
vn 0.0873 0.4919 0.8663
vn 0.0709 0.7059 0.7047
vn 0.1004 -0.0000 0.9949
vn 0.0873 -0.4919 0.8663
vn 0.0709 -0.7059 0.7047
vn 0.0257 -0.9657 0.2584
vn -0.0253 -0.9657 -0.2585
vn -0.0254 -0.9657 -0.2585
vn -0.0824 -0.5056 -0.8588
vn -0.0681 -0.7057 -0.7052
vn -0.3259 0.5160 -0.7922
vn -0.3799 -0.0000 -0.9250
vn -0.2690 0.7085 -0.6524
vn -0.0987 0.9662 -0.2383
vn -0.0986 0.9662 -0.2383
vn 0.0990 0.9662 0.2382
vn 0.3359 0.4878 0.8057
vn 0.2716 0.7083 0.6516
vn 0.3849 -0.0000 0.9230
vn 0.3359 -0.4878 0.8058
vn 0.2716 -0.7083 0.6516
vn 0.0990 -0.9662 0.2382
vn -0.0986 -0.9662 -0.2383
vn -0.0987 -0.9662 -0.2383
vn -0.3259 -0.5160 -0.7922
vn -0.2690 -0.7085 -0.6524
vn -0.6064 0.5145 -0.6064
vn -0.7071 -0.0000 -0.7071
vn -0.5000 0.7071 -0.5000
vn -0.1830 0.9659 -0.1830
vn 0.1830 0.9659 0.1830
vn 0.6178 0.4866 0.6178
vn 0.5000 0.7071 0.5000
vn 0.7071 -0.0000 0.7071
vn 0.6178 -0.4866 0.6178
vn 0.5000 -0.7071 0.5000
vn 0.1830 -0.9659 0.1830
vn -0.1830 -0.9659 -0.1830
vn -0.6064 -0.5145 -0.6064
vn -0.5000 -0.7071 -0.5000
vn -0.7922 0.5160 -0.3259
vn -0.9250 -0.0000 -0.3799
vn -0.6524 0.7085 -0.2690
vn -0.2383 0.9662 -0.0987
vn -0.2383 0.9662 -0.0986
vn 0.2382 0.9662 0.0990
vn 0.8057 0.4878 0.3359
vn 0.6516 0.7083 0.2716
vn 0.9230 -0.0000 0.3849
vn 0.8058 -0.4878 0.3359
vn 0.6516 -0.7083 0.2716
vn 0.2382 -0.9662 0.0990
vn -0.2383 -0.9662 -0.0986
vn -0.2383 -0.9662 -0.0987
vn -0.7922 -0.5160 -0.3259
vn -0.6524 -0.7085 -0.2690
vn -0.8588 0.5056 -0.0824
vn -0.9955 -0.0000 -0.0950
vn -0.7052 0.7057 -0.0681
vn -0.2585 0.9657 -0.0254
vn -0.2585 0.9657 -0.0253
vn 0.2584 0.9657 0.0257
vn 0.8663 0.4919 0.0873
vn 0.7047 0.7059 0.0709
vn 0.9949 -0.0000 0.1004
vn 0.8663 -0.4919 0.0873
vn 0.7047 -0.7059 0.0709
vn 0.2584 -0.9657 0.0257
vn -0.2585 -0.9657 -0.0253
vn -0.2585 -0.9657 -0.0254
vn -0.8588 -0.5056 -0.0824
vn -0.7052 -0.7057 -0.0681
vn -0.8589 0.5055 0.0819
vn -0.9955 -0.0000 0.0944
vn -0.7053 0.7057 0.0679
vn -0.2585 0.9657 0.0253
vn 0.2584 0.9657 -0.0257
vn 0.8662 0.4919 -0.0876
vn 0.7047 0.7059 -0.0711
vn 0.9949 -0.0000 -0.1007
vn 0.8662 -0.4919 -0.0876
vn 0.7047 -0.7059 -0.0711
vn 0.2584 -0.9657 -0.0257
vn -0.2585 -0.9657 0.0253
vn -0.8589 -0.5055 0.0819
vn -0.7053 -0.7057 0.0679
vn -0.7923 0.5161 0.3254
vn -0.9253 -0.0000 0.3793
vn -0.6525 0.7085 0.2688
vn -0.2383 0.9662 0.0987
vn -0.2383 0.9662 0.0986
vn 0.2382 0.9662 -0.0990
vn 0.2382 0.9662 -0.0991
vn 0.8056 0.4878 -0.3362
vn 0.6515 0.7083 -0.2718
vn 0.9228 -0.0000 -0.3852
vn 0.8056 -0.4878 -0.3362
vn 0.6515 -0.7083 -0.2718
vn 0.2382 -0.9662 -0.0991
vn 0.2382 -0.9662 -0.0990
vn -0.2383 -0.9662 0.0986
vn -0.2383 -0.9662 0.0987
vn -0.7923 -0.5161 0.3254
vn -0.6525 -0.7085 0.2688
vn -0.6064 0.5145 0.6064
vn 0.6178 0.4866 -0.6178
vn 0.6178 -0.4866 -0.6178
vn -0.6064 -0.5145 0.6064
vn -0.3254 0.5161 0.7923
vn -0.3793 -0.0000 0.9253
vn -0.2688 0.7085 0.6525
vn -0.0987 0.9662 0.2383
vn -0.0986 0.9662 0.2383
vn 0.0990 0.9662 -0.2382
vn 0.0991 0.9662 -0.2382
vn 0.3362 0.4878 -0.8056
vn 0.2718 0.7083 -0.6515
vn 0.3852 -0.0000 -0.9228
vn 0.3362 -0.4878 -0.8056
vn 0.2718 -0.7083 -0.6515
vn 0.0991 -0.9662 -0.2382
vn 0.0990 -0.9662 -0.2382
vn -0.0986 -0.9662 0.2383
vn -0.0987 -0.9662 0.2383
vn -0.3254 -0.5161 0.7923
vn -0.2688 -0.7085 0.6525
vn -0.0819 0.5055 0.8589
vn -0.0944 -0.0000 0.9955
vn -0.0679 0.7057 0.7053
vn -0.0253 0.9657 0.2585
vn 0.0257 0.9657 -0.2584
vn 0.0876 0.4919 -0.8662
vn 0.0711 0.7059 -0.7047
vn 0.1007 -0.0000 -0.9949
vn 0.0876 -0.4919 -0.8662
vn 0.0711 -0.7059 -0.7047
vn 0.0257 -0.9657 -0.2584
vn -0.0253 -0.9657 0.2585
vn -0.0819 -0.5055 0.8589
vn -0.0679 -0.7057 0.7053
vn 0.0819 0.5055 0.8589
vn 0.0944 -0.0000 0.9955
vn 0.0679 0.7057 0.7053
vn 0.0253 0.9657 0.2585
vn -0.0257 0.9657 -0.2584
vn -0.0876 0.4919 -0.8662
vn -0.0711 0.7059 -0.7047
vn -0.1007 -0.0000 -0.9949
vn -0.0876 -0.4919 -0.8662
vn -0.0711 -0.7059 -0.7047
vn -0.0257 -0.9657 -0.2584
vn 0.0253 -0.9657 0.2585
vn 0.0819 -0.5055 0.8589
vn 0.0679 -0.7057 0.7053
vn 0.3254 0.5161 0.7923
vn 0.3793 -0.0000 0.9253
vn 0.2688 0.7085 0.6525
vn 0.0987 0.9662 0.2383
vn 0.0986 0.9662 0.2383
vn -0.0990 0.9662 -0.2382
vn -0.0991 0.9662 -0.2382
vn -0.3362 0.4878 -0.8056
vn -0.2718 0.7083 -0.6515
vn -0.3852 -0.0000 -0.9228
vn -0.3362 -0.4878 -0.8056
vn -0.2718 -0.7083 -0.6515
vn -0.0991 -0.9662 -0.2382
vn -0.0990 -0.9662 -0.2382
vn 0.0986 -0.9662 0.2383
vn 0.0987 -0.9662 0.2383
vn 0.3254 -0.5161 0.7923
vn 0.2688 -0.7085 0.6525
vn 0.6064 0.5145 0.6064
vn -0.6178 0.4866 -0.6178
vn -0.6178 -0.4866 -0.6178
vn 0.6064 -0.5145 0.6064
vn 0.7923 0.5161 0.3254
vn 0.9253 -0.0000 0.3793
vn 0.6525 0.7085 0.2688
vn 0.2383 0.9662 0.0987
vn 0.2383 0.9662 0.0986
vn -0.2382 0.9662 -0.0990
vn -0.2382 0.9662 -0.0991
vn -0.8056 0.4878 -0.3362
vn -0.6515 0.7083 -0.2718
vn -0.9228 -0.0000 -0.3852
vn -0.8056 -0.4878 -0.3362
vn -0.6515 -0.7083 -0.2718
vn -0.2382 -0.9662 -0.0991
vn -0.2382 -0.9662 -0.0990
vn 0.2383 -0.9662 0.0986
vn 0.2383 -0.9662 0.0987
vn 0.7923 -0.5161 0.3254
vn 0.6525 -0.7085 0.2688
vn 0.8589 0.5055 0.0819
vn 0.9955 -0.0000 0.0944
vn 0.7053 0.7057 0.0679
vn 0.2585 0.9657 0.0253
vn -0.2584 0.9657 -0.0257
vn -0.8662 0.4919 -0.0876
vn -0.7047 0.7059 -0.0711
vn -0.9949 -0.0000 -0.1007
vn -0.8662 -0.4919 -0.0876
vn -0.7047 -0.7059 -0.0711
vn -0.2584 -0.9657 -0.0257
vn 0.2585 -0.9657 0.0253
vn 0.8589 -0.5055 0.0819
vn 0.7053 -0.7057 0.0679
vn 0.8590 0.5055 -0.0816
vn 0.9956 -0.0000 -0.0940
vn 0.7053 0.7057 -0.0676
vn 0.2585 0.9657 -0.0253
vn -0.2584 0.9657 0.0257
vn -0.2584 0.9657 0.0258
vn -0.8662 0.4919 0.0878
vn -0.7047 0.7059 0.0712
vn -0.9949 -0.0000 0.1010
vn -0.8662 -0.4919 0.0878
vn -0.7047 -0.7059 0.0712
vn -0.2584 -0.9657 0.0258
vn -0.2584 -0.9657 0.0257
vn 0.2585 -0.9657 -0.0253
vn 0.8590 -0.5055 -0.0816
vn 0.7053 -0.7057 -0.0676
vn 0.7924 0.5161 -0.3251
vn 0.9255 -0.0000 -0.3789
vn 0.6526 0.7085 -0.2686
vn -0.2382 0.9662 0.0991
vn -0.8056 0.4878 0.3364
vn -0.6514 0.7083 0.2720
vn -0.9227 -0.0000 0.3854
vn -0.8056 -0.4878 0.3364
vn -0.6514 -0.7083 0.2720
vn -0.2382 -0.9662 0.0991
vn 0.7924 -0.5161 -0.3251
vn 0.6526 -0.7085 -0.2686
vn 0.3251 0.5161 -0.7924
vn 0.3789 -0.0000 -0.9255
vn 0.2686 0.7085 -0.6526
vn -0.0991 0.9662 0.2382
vn -0.3364 0.4878 0.8056
vn -0.2720 0.7083 0.6514
vn -0.3854 -0.0000 0.9227
vn -0.3364 -0.4878 0.8056
vn -0.2720 -0.7083 0.6514
vn -0.0991 -0.9662 0.2382
vn 0.3251 -0.5161 -0.7924
vn 0.2686 -0.7085 -0.6526
vn 0.0816 0.5055 -0.8590
vn 0.0940 -0.0000 -0.9956
vn 0.0676 0.7057 -0.7053
vn -0.0258 0.9657 0.2584
vn -0.0878 0.4919 0.8662
vn -0.0712 0.7059 0.7047
vn -0.1010 -0.0000 0.9949
vn -0.0878 -0.4919 0.8662
vn -0.0712 -0.7059 0.7047
vn -0.0258 -0.9657 0.2584
vn 0.0816 -0.5055 -0.8590
vn 0.0676 -0.7057 -0.7053
vn -0.0816 0.5055 -0.8590
vn -0.0940 -0.0000 -0.9956
vn -0.0676 0.7057 -0.7053
vn 0.0258 0.9657 0.2584
vn 0.0878 0.4919 0.8662
vn 0.0712 0.7059 0.7047
vn 0.1010 -0.0000 0.9949
vn 0.0878 -0.4919 0.8662
vn 0.0712 -0.7059 0.7047
vn 0.0258 -0.9657 0.2584
vn -0.0816 -0.5055 -0.8590
vn -0.0676 -0.7057 -0.7053
vn -0.3251 0.5161 -0.7924
vn -0.3789 -0.0000 -0.9255
vn -0.2686 0.7085 -0.6526
vn 0.0991 0.9662 0.2382
vn 0.3364 0.4878 0.8056
vn 0.2720 0.7083 0.6514
vn 0.3854 -0.0000 0.9227
vn 0.3364 -0.4878 0.8056
vn 0.2720 -0.7083 0.6514
vn 0.0991 -0.9662 0.2382
vn -0.3251 -0.5161 -0.7924
vn -0.2686 -0.7085 -0.6526
vn -0.7924 0.5161 -0.3251
vn -0.9255 -0.0000 -0.3789
vn -0.6526 0.7085 -0.2686
vn 0.2382 0.9662 0.0991
vn 0.8056 0.4878 0.3364
vn 0.6514 0.7083 0.2720
vn 0.9227 -0.0000 0.3854
vn 0.8056 -0.4878 0.3364
vn 0.6514 -0.7083 0.2720
vn 0.2382 -0.9662 0.0991
vn -0.7924 -0.5161 -0.3251
vn -0.6526 -0.7085 -0.2686
vn -0.8587 0.5059 -0.0815
vn -0.9956 -0.0000 -0.0939
vn -0.7049 0.7061 -0.0676
vn -0.2582 0.9658 -0.0253
vn 0.2581 0.9658 0.0257
vn 0.2581 0.9658 0.0258
vn 0.8660 0.4923 0.0878
vn 0.7042 0.7064 0.0713
vn 0.9949 -0.0000 0.1011
vn 0.8660 -0.4923 0.0878
vn 0.7042 -0.7064 0.0713
vn 0.2581 -0.9658 0.0258
vn 0.2581 -0.9658 0.0257
vn -0.2582 -0.9658 -0.0253
vn -0.8587 -0.5059 -0.0815
vn -0.7049 -0.7061 -0.0676
vn -0.8665 0.4992 0.0002
vn -1.0000 -0.0000 0.0002
vn 0.8665 0.4992 0.0002
vn 1.0000 -0.0000 0.0002
vn 0.8665 -0.4992 0.0002
vn -0.8665 -0.4992 0.0002
vn -0.0000 -0.0000 -1.0000
vt 0.649407 0.001710
vt 0.643393 0.608463
vt 0.637034 0.608210
vt 0.643048 0.001643
vt 0.232691 0.286034
vt 0.232726 0.893330
vt 0.227018 0.892819
vt 0.226958 0.286035
vt 0.239978 0.286034
vt 0.239979 0.894028
vt 0.246865 0.286035
vt 0.246833 0.894727
vt 0.614723 0.684779
vt 0.607654 0.075616
vt 0.614072 0.076050
vt 0.621141 0.684700
vt 0.607346 0.684864
vt 0.600278 0.075515
vt 0.600987 0.684935
vt 0.593919 0.075772
vt 0.489519 0.708776
vt 0.489484 0.100083
vt 0.495192 0.099572
vt 0.495252 0.708775
vt 0.482233 0.708776
vt 0.482232 0.100782
vt 0.475345 0.708775
vt 0.475378 0.101480
vt 0.635671 0.001570
vt 0.629657 0.608324
vt 0.623240 0.608775
vt 0.629252 0.001510
vt 0.644716 0.640240
vt 0.638326 0.639442
vt 0.226252 0.926582
vt 0.220914 0.924586
vt 0.232999 0.929309
vt 0.239348 0.932036
vt 0.609309 0.036793
vt 0.615645 0.038713
vt 0.601963 0.036147
vt 0.595574 0.036949
vt 0.481999 0.062774
vt 0.487337 0.060777
vt 0.475252 0.065501
vt 0.468904 0.068228
vt 0.630980 0.640100
vt 0.624647 0.642037
vt 0.649076 0.666174
vt 0.642581 0.664756
vt 0.207913 0.954179
vt 0.203700 0.950491
vt 0.213124 0.959218
vt 0.217936 0.964257
vt 0.614958 0.002790
vt 0.621012 0.006407
vt 0.607714 0.001524
vt 0.601222 0.002946
vt 0.460587 0.030552
vt 0.464800 0.026863
vt 0.455376 0.035591
vt 0.450564 0.040630
vt 0.635340 0.666034
vt 0.629292 0.669666
vt 0.919428 0.001800
vt 0.919428 0.027706
vt 0.912301 0.028436
vt 0.912301 0.003150
vt 0.180466 0.972619
vt 0.177936 0.967800
vt 0.183378 0.979203
vt 0.185890 0.985787
vt 0.221060 0.967947
vt 0.187331 0.990607
vt 0.897819 0.019704
vt 0.866380 0.012603
vt 0.865430 0.006165
vt 0.896305 0.013139
vt 0.896321 0.026890
vt 0.865446 0.019916
vt 0.428542 0.009022
vt 0.431072 0.004202
vt 0.425630 0.015606
vt 0.423117 0.022190
vt 0.447440 0.044318
vt 0.421676 0.027009
vt 0.905175 0.027706
vt 0.905175 0.001800
vt 0.919428 0.059473
vt 0.912301 0.059660
vt 0.147396 0.979129
vt 0.146342 0.973938
vt 0.148290 0.986220
vt 0.148785 0.993313
vt 0.148749 0.998505
vt 0.828326 0.009278
vt 0.827899 0.002892
vt 0.827915 0.016643
vt 0.862879 0.026145
vt 0.826776 0.023016
vt 0.390542 0.008588
vt 0.391436 0.001496
vt 0.390047 0.015680
vt 0.905175 0.059473
vt 0.899958 0.058961
vt 0.899958 0.025709
vt 0.919428 0.099429
vt 0.912301 0.099242
vt 0.924645 0.058961
vt 0.924645 0.099940
vt 0.106145 0.986220
vt 0.106641 0.979128
vt 0.105251 0.993312
vt 0.104198 0.998504
vt 0.783498 0.007867
vt 0.783443 0.001494
vt 0.783458 0.015245
vt 0.783334 0.021649
vt 0.348398 0.008587
vt 0.347902 0.001495
vt 0.349292 0.015679
vt 0.905175 0.099429
vt 0.899958 0.099940
vt 0.919428 0.131196
vt 0.912301 0.130465
vt 0.924645 0.133192
vt 0.071057 0.979202
vt 0.073570 0.972618
vt 0.068146 0.985786
vt 0.065616 0.990606
vt 0.743471 0.008737
vt 0.743972 0.002344
vt 0.743988 0.016095
vt 0.745383 0.022449
vt 0.313310 0.015605
vt 0.310797 0.009021
vt 0.316221 0.022188
vt 0.350345 0.020870
vt 0.318751 0.027008
vt 0.905175 0.131196
vt 0.919428 0.157101
vt 0.912301 0.155751
vt 0.046123 0.954178
vt 0.049247 0.950490
vt 0.075011 0.967799
vt 0.041311 0.959217
vt 0.036100 0.964256
vt 0.031887 0.967945
vt 0.706366 0.013682
vt 0.707532 0.007201
vt 0.707548 0.020952
vt 0.710762 0.027063
vt 0.283564 0.035590
vt 0.278751 0.030550
vt 0.288774 0.040628
vt 0.292988 0.044317
vt 0.905175 0.157101
vt 0.534778 0.910825
vt 0.530192 0.884930
vt 0.537532 0.884208
vt 0.542008 0.909484
vt 0.528762 0.914509
vt 0.523877 0.886922
vt 0.021435 0.929307
vt 0.027784 0.926580
vt 0.014688 0.932034
vt 0.009350 0.934031
vt 0.504637 0.943851
vt 0.510751 0.909289
vt 0.517148 0.908555
vt 0.511144 0.942496
vt 0.497407 0.942508
vt 0.503412 0.908567
vt 0.491391 0.938828
vt 0.497096 0.906581
vt 0.263688 0.065499
vt 0.257339 0.062772
vt 0.270435 0.068226
vt 0.275773 0.070222
vt 0.543929 0.884950
vt 0.548514 0.910845
vt 0.528593 0.853167
vt 0.535968 0.852988
vt 0.522180 0.853674
vt 0.014456 0.894026
vt 0.021310 0.893328
vt 0.007203 0.894724
vt 0.001495 0.895236
vt 0.512849 0.869942
vt 0.519210 0.869751
vt 0.505474 0.869763
vt 0.499061 0.869262
vt 0.256708 0.100780
vt 0.249855 0.100081
vt 0.263961 0.101478
vt 0.269669 0.101989
vt 0.542329 0.853186
vt 0.529536 0.054141
vt 0.536911 0.054336
vt 0.523124 0.053625
vt 0.014454 0.092579
vt 0.021308 0.093278
vt 0.007201 0.091881
vt 0.001493 0.091370
vt 0.511928 0.065702
vt 0.518290 0.065885
vt 0.504554 0.065898
vt 0.498142 0.066420
vt 0.256710 0.902226
vt 0.249856 0.902925
vt 0.263962 0.901528
vt 0.269670 0.901016
vt 0.543273 0.054160
vt 0.530927 0.027599
vt 0.538265 0.028338
vt 0.524616 0.025598
vt 0.020399 0.062527
vt 0.026747 0.065254
vt 0.013652 0.059800
vt 0.008314 0.057804
vt 0.510024 0.031601
vt 0.516423 0.032328
vt 0.502686 0.032340
vt 0.496375 0.034346
vt 0.262655 0.932279
vt 0.256307 0.935006
vt 0.269402 0.929552
vt 0.274740 0.927555
vt 0.544663 0.027619
vt 0.534779 0.006118
vt 0.542006 0.007477
vt 0.528772 0.002424
vt 0.037329 0.037050
vt 0.042141 0.042089
vt 0.032118 0.032011
vt 0.027905 0.028322
vt 0.504626 0.001524
vt 0.511135 0.002870
vt 0.497399 0.002882
vt 0.491392 0.006580
vt 0.279585 0.957756
vt 0.274773 0.962795
vt 0.284796 0.952717
vt 0.289010 0.949028
vt 0.548515 0.006137
vt 0.952897 0.002052
vt 0.949114 0.021733
vt 0.942710 0.022890
vt 0.946384 0.003777
vt 0.065180 0.026611
vt 0.066621 0.031431
vt 0.045265 0.045778
vt 0.062667 0.020027
vt 0.059756 0.013443
vt 0.057226 0.008624
vt 0.230486 0.001517
vt 0.230486 0.031618
vt 0.223360 0.032349
vt 0.223360 0.002867
vt 0.237613 0.002867
vt 0.237613 0.032349
vt 0.302411 0.981364
vt 0.300970 0.986183
vt 0.271649 0.966483
vt 0.304923 0.974780
vt 0.307835 0.968196
vt 0.310365 0.963376
vt 0.935371 0.022192
vt 0.939154 0.002511
vt 0.947785 0.047501
vt 0.941417 0.048134
vt 0.093051 0.021141
vt 0.093015 0.026333
vt 0.092555 0.014049
vt 0.091661 0.006957
vt 0.090608 0.001766
vt 0.230486 0.065728
vt 0.223360 0.065915
vt 0.237613 0.065915
vt 0.242829 0.034345
vt 0.242829 0.066426
vt 0.334812 0.980758
vt 0.334316 0.987850
vt 0.335706 0.973666
vt 0.934042 0.047961
vt 0.927636 0.047027
vt 0.929062 0.019827
vt 0.947814 0.082675
vt 0.941445 0.082936
vt 0.129299 0.021141
vt 0.128246 0.026334
vt 0.130193 0.014049
vt 0.130688 0.006958
vt 0.223360 0.106179
vt 0.218143 0.105667
vt 0.218143 0.066426
vt 0.230486 0.106366
vt 0.237613 0.106179
vt 0.242829 0.105667
vt 0.372449 0.980758
vt 0.373343 0.987850
vt 0.371954 0.973666
vt 0.934070 0.083134
vt 0.927665 0.083217
vt 0.949185 0.109609
vt 0.942780 0.109314
vt 0.157170 0.026611
vt 0.154639 0.031432
vt 0.160081 0.020027
vt 0.162594 0.013444
vt 0.223360 0.139745
vt 0.218143 0.137748
vt 0.230486 0.140476
vt 0.237613 0.139745
vt 0.405249 0.981365
vt 0.407779 0.986184
vt 0.374396 0.993041
vt 0.402337 0.974781
vt 0.399824 0.968197
vt 0.935442 0.110068
vt 0.929136 0.111667
vt 0.953003 0.132570
vt 0.946488 0.131613
vt 0.180208 0.042090
vt 0.175995 0.045780
vt 0.185419 0.037051
vt 0.190231 0.032012
vt 0.164035 0.008625
vt 0.193355 0.028324
vt 0.230486 0.170577
vt 0.223360 0.169226
vt 0.237613 0.169226
vt 0.432886 0.962797
vt 0.437099 0.966485
vt 0.427675 0.957758
vt 0.422863 0.952718
vt 0.939259 0.133029
vt 0.933255 0.136438
vt 0.596054 0.006094
vt 0.592248 0.027583
vt 0.585851 0.028316
vt 0.589548 0.007447
vt 0.195602 0.065256
vt 0.190264 0.067253
vt 0.202349 0.062528
vt 0.208698 0.059802
vt 0.566514 0.690804
vt 0.561287 0.661336
vt 0.567602 0.659342
vt 0.572529 0.687119
vt 0.559285 0.692147
vt 0.553947 0.662060
vt 0.552778 0.690789
vt 0.547550 0.661320
vt 0.451353 0.935008
vt 0.456691 0.937004
vt 0.444605 0.932281
vt 0.438257 0.929553
vt 0.582318 0.006103
vt 0.578511 0.027592
vt 0.572196 0.025604
vt 0.576303 0.002421
vt 0.590912 0.054128
vt 0.584551 0.054317
vt 0.201042 0.093280
vt 0.195334 0.093791
vt 0.208295 0.092581
vt 0.215149 0.091883
vt 0.559487 0.627774
vt 0.565900 0.627265
vt 0.552112 0.627955
vt 0.545751 0.627759
vt 0.457803 0.902927
vt 0.463511 0.903438
vt 0.450551 0.902228
vt 0.443697 0.901530
vt 0.577176 0.054137
vt 0.570763 0.053634
vt 0.591423 0.616581
vt 0.585061 0.616396
vt 0.201043 0.656756
vt 0.195335 0.656245
vt 0.208296 0.657454
vt 0.215150 0.658153
vt 0.559988 0.060482
vt 0.566400 0.060995
vt 0.552613 0.060288
vt 0.546251 0.060466
vt 0.457802 0.336656
vt 0.463510 0.336144
vt 0.450550 0.337355
vt 0.443696 0.338053
vt 0.577686 0.616590
vt 0.571275 0.617110
vt 0.592647 0.640157
vt 0.586249 0.639429
vt 0.196189 0.681823
vt 0.190851 0.679827
vt 0.202936 0.684549
vt 0.209284 0.687277
vt 0.561687 0.029869
vt 0.567998 0.031868
vt 0.554349 0.029131
vt 0.547950 0.029853
vt 0.451937 0.307533
vt 0.457275 0.305536
vt 0.445190 0.310260
vt 0.438841 0.312987
vt 0.578911 0.640166
vt 0.572599 0.642171
vt 0.596044 0.659108
vt 0.589534 0.657761
vt 0.182461 0.702480
vt 0.178248 0.698792
vt 0.187672 0.707519
vt 0.192484 0.712559
vt 0.566517 0.002882
vt 0.572526 0.006575
vt 0.559290 0.001525
vt 0.552781 0.002867
vt 0.435136 0.282250
vt 0.439349 0.278561
vt 0.429925 0.287290
vt 0.425113 0.292328
vt 0.582307 0.659117
vt 0.576299 0.662814
vt 0.367832 0.019741
vt 0.367832 0.038707
vt 0.360706 0.039438
vt 0.360706 0.021092
vt 0.161916 0.716284
vt 0.159386 0.711464
vt 0.164827 0.722867
vt 0.167340 0.729451
vt 0.195608 0.716248
vt 0.168781 0.734272
vt 0.969609 0.001533
vt 0.963692 0.026598
vt 0.957245 0.027486
vt 0.963030 0.002983
vt 0.976781 0.003101
vt 0.970996 0.027603
vt 0.409992 0.265357
vt 0.412522 0.260537
vt 0.407081 0.271941
vt 0.404568 0.278525
vt 0.421989 0.296017
vt 0.403127 0.283344
vt 0.353580 0.038707
vt 0.353580 0.019741
vt 0.367832 0.062288
vt 0.360706 0.062476
vt 0.136986 0.721165
vt 0.135933 0.715974
vt 0.137880 0.728256
vt 0.138376 0.735349
vt 0.138340 0.740541
vt 0.960755 0.056701
vt 0.954366 0.057066
vt 0.968117 0.057184
vt 0.977200 0.030231
vt 0.974478 0.058385
vt 0.380134 0.266551
vt 0.381028 0.259459
vt 0.379638 0.273643
vt 0.353580 0.062288
vt 0.348363 0.061777
vt 0.348363 0.036711
vt 0.367832 0.082869
vt 0.360706 0.082682
vt 0.373049 0.061777
vt 0.373049 0.083380
vt 0.115006 0.728256
vt 0.115501 0.721164
vt 0.114112 0.735348
vt 0.113059 0.740541
vt 0.959702 0.082291
vt 0.953328 0.082285
vt 0.967079 0.082402
vt 0.973482 0.082588
vt 0.357259 0.266551
vt 0.356764 0.259459
vt 0.358153 0.273643
vt 0.353580 0.082869
vt 0.348363 0.083380
vt 0.367832 0.106450
vt 0.360706 0.105720
vt 0.373049 0.108447
vt 0.088059 0.722866
vt 0.090572 0.716283
vt 0.085148 0.729451
vt 0.082617 0.734271
vt 0.960094 0.113999
vt 0.953707 0.113437
vt 0.967458 0.113554
vt 0.973825 0.112221
vt 0.330312 0.271940
vt 0.327800 0.265356
vt 0.333224 0.278524
vt 0.359207 0.278834
vt 0.335754 0.283343
vt 0.353580 0.106450
vt 0.367832 0.125416
vt 0.360706 0.124066
vt 0.070027 0.702479
vt 0.073151 0.698791
vt 0.092013 0.711464
vt 0.065214 0.707518
vt 0.060004 0.712557
vt 0.055790 0.716247
vt 0.963758 0.143685
vt 0.957289 0.142456
vt 0.971039 0.142574
vt 0.977182 0.139419
vt 0.307468 0.287288
vt 0.302656 0.282249
vt 0.312679 0.292327
vt 0.316892 0.296015
vt 0.353580 0.125416
vt 0.689523 0.343130
vt 0.686415 0.324130
vt 0.693763 0.323504
vt 0.696770 0.341884
vt 0.683459 0.346735
vt 0.680073 0.326039
vt 0.049950 0.684548
vt 0.056299 0.681821
vt 0.043203 0.687275
vt 0.037865 0.689272
vt 0.663745 0.001521
vt 0.659310 0.029213
vt 0.652926 0.030052
vt 0.657261 0.002981
vt 0.670995 0.002745
vt 0.666661 0.029816
vt 0.677070 0.006326
vt 0.673008 0.031698
vt 0.292204 0.310258
vt 0.285855 0.307531
vt 0.298951 0.312985
vt 0.304289 0.314981
vt 0.700149 0.324330
vt 0.703258 0.343330
vt 0.685549 0.300538
vt 0.692926 0.300456
vt 0.679130 0.300961
vt 0.044590 0.657453
vt 0.051444 0.656755
vt 0.037338 0.658152
vt 0.031630 0.658663
vt 0.658146 0.060396
vt 0.651789 0.060691
vt 0.665523 0.060455
vt 0.671944 0.060850
vt 0.286844 0.337353
vt 0.279990 0.336654
vt 0.294096 0.338052
vt 0.299804 0.338562
vt 0.699284 0.300738
vt 0.689839 0.001605
vt 0.697216 0.001710
vt 0.683420 0.001516
vt 0.044589 0.357279
vt 0.051477 0.357280
vt 0.037303 0.357280
vt 0.031570 0.357280
vt 0.663393 0.361921
vt 0.657035 0.362028
vt 0.670770 0.361792
vt 0.677188 0.361677
vt 0.286844 0.637527
vt 0.279956 0.637527
vt 0.294131 0.637527
vt 0.299864 0.637526
vt 0.703574 0.001805
vt 0.018955 0.001497
vt 0.025344 0.005186
vt 0.015266 0.015264
vt 0.001499 0.011575
vt 0.005188 0.005186
vt 0.029033 0.018953
vt 0.025344 0.025342
vt 0.001499 0.018953
vt 0.018955 0.029031
vt 0.011577 0.029031
vt 0.005188 0.025342
vt 0.011577 0.001497
vt 0.029033 0.011575
vt 0.214109 0.005187
vt 0.217798 0.011576
vt 0.204031 0.015265
vt 0.193953 0.025343
vt 0.190264 0.018954
vt 0.200342 0.029032
vt 0.214109 0.025343
vt 0.207720 0.029032
vt 0.200342 0.001498
vt 0.207720 0.001498
vt 0.193953 0.005187
vt 0.190264 0.011576
vt 0.217798 0.018954
s 1
usemtl Material
f 1/1/1 13/2/2 24/3/3 12/4/4
f 2/5/5 14/6/6 13/7/2 1/8/1
f 3/9/7 15/10/8 14/6/9 2/5/7
f 4/11/10 16/12/11 15/10/11 3/9/10
f 5/13/12 17/14/13 16/15/14 4/16/15
f 6/17/16 18/18/17 17/14/13 5/13/12
f 7/19/18 19/20/19 18/18/17 6/17/16
f 8/21/20 20/22/21 19/23/19 7/24/18
f 9/25/22 21/26/23 20/22/23 8/21/22
f 10/27/24 22/28/25 21/26/26 9/25/24
f 11/29/27 23/30/28 22/31/29 10/32/30
f 12/4/4 24/3/3 23/30/28 11/29/27
f 13/2/2 25/33/31 36/34/32 24/3/3
f 14/6/6 26/35/33 25/36/31 13/7/2
f 15/10/8 27/37/34 26/35/35 14/6/9
f 16/12/11 28/38/36 27/37/36 15/10/11
f 17/14/13 29/39/37 28/40/38 16/15/14
f 18/18/17 30/41/39 29/39/37 17/14/13
f 19/20/19 31/42/40 30/41/39 18/18/17
f 20/22/21 32/43/41 31/44/40 19/23/19
f 21/26/23 33/45/42 32/43/42 20/22/23
f 22/28/25 34/46/43 33/45/44 21/26/26
f 23/30/28 35/47/45 34/48/46 22/31/29
f 24/3/3 36/34/32 35/47/45 23/30/28
f 25/33/31 37/49/47 48/50/48 36/34/32
f 26/35/33 38/51/49 37/52/47 25/36/31
f 27/37/34 39/53/50 38/51/50 26/35/35
f 28/38/36 40/54/51 39/53/51 27/37/36
f 29/39/37 41/55/52 40/56/53 28/40/38
f 30/41/39 42/57/54 41/55/52 29/39/37
f 31/42/40 43/58/55 42/57/54 30/41/39
f 32/43/41 44/59/56 43/60/55 31/44/40
f 33/45/42 45/61/57 44/59/57 32/43/42
f 34/46/43 46/62/58 45/61/58 33/45/44
f 35/47/45 47/63/59 46/64/60 34/48/46
f 36/34/32 48/50/48 47/63/59 35/47/45
f 37/65/47 49/66/61 60/67/62 48/68/48
f 38/51/49 50/69/63 49/70/61 37/52/47
f 39/53/50 51/71/64 50/69/65 38/51/50
f 40/54/51 52/72/66 51/71/66 39/53/51
f 41/73/52 53/74/67 52/72/68 40/54/53
f 42/75/54 54/76/69 53/77/67 41/78/52
f 43/79/55 55/80/70 54/76/69 42/75/54
f 44/59/56 56/81/71 55/82/70 43/60/55
f 45/61/57 57/83/72 56/81/72 44/59/57
f 46/62/58 58/84/73 57/83/74 45/61/58
f 47/85/59 59/86/75 58/84/76 46/62/60
f 48/68/48 60/67/62 59/87/75 47/88/59
f 49/66/61 61/89/77 72/90/78 60/67/62
f 50/69/63 62/91/79 61/92/77 49/70/61
f 51/71/64 63/93/80 62/91/81 50/69/65
f 52/72/66 64/94/82 63/93/82 51/71/66
f 53/74/67 65/95/83 64/94/84 52/72/68
f 54/76/69 66/96/85 65/97/83 53/77/67
f 55/80/70 67/98/86 66/96/85 54/76/69
f 56/99/71 68/100/87 67/98/86 55/80/70
f 57/83/72 69/101/88 68/102/88 56/81/72
f 58/84/73 70/103/89 69/101/90 57/83/74
f 59/87/75 71/104/91 70/105/92 58/106/76
f 60/67/62 72/90/78 71/104/91 59/87/75
f 61/89/77 73/107/93 84/108/94 72/90/78
f 62/109/79 74/110/95 73/107/93 61/89/77
f 63/93/80 75/111/96 74/112/97 62/91/81
f 64/94/82 76/113/98 75/111/98 63/93/82
f 65/95/83 77/114/99 76/113/100 64/94/84
f 66/96/85 78/115/101 77/116/99 65/97/83
f 67/98/86 79/117/102 78/115/101 66/96/85
f 68/100/87 80/118/103 79/117/102 67/98/86
f 69/101/88 81/119/104 80/120/104 68/102/88
f 70/103/89 82/121/105 81/119/106 69/101/90
f 71/104/91 83/122/107 82/123/108 70/105/92
f 72/90/78 84/108/94 83/122/107 71/104/91
f 73/107/93 85/124/109 96/125/110 84/108/94
f 74/110/95 86/126/111 85/124/109 73/107/93
f 75/111/96 87/127/112 86/128/113 74/112/97
f 76/113/98 88/129/114 87/127/114 75/111/98
f 77/114/99 89/130/115 88/129/116 76/113/100
f 78/115/101 90/131/117 89/132/115 77/116/99
f 79/117/102 91/133/118 90/131/117 78/115/101
f 80/118/103 92/134/119 91/133/118 79/117/102
f 81/119/104 93/135/120 92/136/120 80/120/104
f 82/121/105 94/137/121 93/135/122 81/119/106
f 83/138/107 95/139/123 94/137/124 82/121/108
f 84/108/94 96/125/110 95/140/123 83/122/107
f 85/124/109 97/141/125 108/142/126 96/125/110
f 86/128/111 98/143/127 97/144/125 85/145/109
f 87/127/112 99/146/128 98/143/128 86/128/113
f 88/129/114 100/147/129 99/146/129 87/127/114
f 89/130/115 101/148/130 100/147/131 88/129/116
f 90/131/117 102/149/132 101/150/130 89/132/115
f 91/133/118 103/151/133 102/149/132 90/131/117
f 92/134/119 104/152/134 103/151/133 91/133/118
f 93/135/120 105/153/135 104/154/135 92/136/120
f 94/137/121 106/155/136 105/153/136 93/135/122
f 95/139/123 107/156/137 106/155/138 94/137/124
f 96/125/110 108/142/126 107/157/137 95/140/123
f 97/158/125 109/159/139 120/160/140 108/161/126
f 98/162/127 110/163/141 109/159/139 97/158/125
f 99/146/128 111/164/142 110/165/143 98/143/128
f 100/147/129 112/166/144 111/164/144 99/146/129
f 101/148/130 113/167/145 112/166/146 100/147/131
f 102/168/132 114/169/147 113/170/145 101/171/130
f 103/172/133 115/173/148 114/169/147 102/168/132
f 104/174/134 116/175/149 115/173/148 103/172/133
f 105/153/135 117/176/150 116/177/150 104/154/135
f 106/155/136 118/178/151 117/176/152 105/153/136
f 107/156/137 119/179/153 118/178/154 106/155/138
f 108/161/126 120/160/140 119/180/153 107/181/137
f 109/159/139 121/182/155 132/183/156 120/160/140
f 110/163/141 122/184/157 121/182/155 109/159/139
f 111/164/142 123/185/158 122/186/159 110/165/143
f 112/166/144 124/187/160 123/185/160 111/164/144
f 113/167/145 125/188/161 124/187/162 112/166/146
f 114/169/147 126/189/163 125/190/161 113/170/145
f 115/173/148 127/191/164 126/189/163 114/169/147
f 116/175/149 128/192/165 127/191/164 115/173/148
f 117/176/150 129/193/166 128/194/166 116/177/150
f 118/178/151 130/195/167 129/193/168 117/176/152
f 119/179/153 131/196/169 130/195/170 118/178/154
f 120/160/140 132/183/156 131/197/169 119/180/153
f 121/182/155 133/198/171 144/199/172 132/183/156
f 122/184/157 134/200/173 133/198/171 121/182/155
f 123/185/158 135/201/174 134/202/174 122/186/159
f 124/187/160 136/203/175 135/201/175 123/185/160
f 125/188/161 137/204/176 136/203/177 124/187/162
f 126/189/163 138/205/178 137/206/176 125/190/161
f 127/191/164 139/207/179 138/205/178 126/189/163
f 128/192/165 140/208/180 139/207/179 127/191/164
f 129/193/166 141/209/181 140/210/181 128/194/166
f 130/195/167 142/211/182 141/209/182 129/193/168
f 131/196/169 143/212/183 142/211/184 130/195/170
f 132/183/156 144/199/172 143/213/183 131/197/169
f 133/198/171 145/214/185 156/215/186 144/199/172
f 134/200/173 146/216/187 145/214/185 133/198/171
f 135/201/174 147/217/188 146/218/189 134/202/174
f 136/203/175 148/219/190 147/217/191 135/201/175
f 137/204/176 149/220/192 148/219/193 136/203/177
f 138/205/178 150/221/194 149/222/192 137/206/176
f 139/207/179 151/223/195 150/221/194 138/205/178
f 140/208/180 152/224/196 151/223/195 139/207/179
f 141/209/181 153/225/197 152/226/198 140/210/181
f 142/211/182 154/227/199 153/225/200 141/209/182
f 143/212/183 155/228/201 154/227/202 142/211/184
f 144/199/172 156/215/186 155/229/201 143/213/183
f 145/214/185 157/230/203 168/231/54 156/215/186
f 146/216/187 158/232/53 157/230/203 145/214/185
f 147/217/188 159/233/51 158/234/51 146/218/189
f 148/219/190 160/235/50 159/233/50 147/217/191
f 149/220/192 161/236/204 160/235/49 148/219/193
f 150/221/194 162/237/48 161/238/204 149/222/192
f 151/223/195 163/239/205 162/237/48 150/221/194
f 152/224/196 164/240/60 163/239/205 151/223/195
f 153/225/197 165/241/58 164/242/58 152/226/198
f 154/227/199 166/243/57 165/241/57 153/225/200
f 155/228/201 167/244/206 166/243/56 154/227/202
f 156/215/186 168/231/54 167/245/206 155/229/201
f 157/246/203 169/247/207 180/248/208 168/249/54
f 158/234/53 170/250/209 169/251/207 157/252/203
f 159/233/51 171/253/210 170/250/211 158/234/51
f 160/235/50 172/254/212 171/253/213 159/233/50
f 161/236/204 173/255/214 172/254/215 160/235/49
f 162/256/48 174/257/216 173/258/214 161/259/204
f 163/260/205 175/261/217 174/257/216 162/256/48
f 164/242/60 176/262/218 175/263/217 163/264/205
f 165/241/58 177/265/219 176/262/220 164/242/58
f 166/243/57 178/266/221 177/265/222 165/241/57
f 167/244/206 179/267/223 178/266/224 166/243/56
f 168/249/54 180/248/208 179/268/223 167/269/206
f 169/247/207 181/270/225 192/271/226 180/248/208
f 170/250/209 182/272/227 181/273/225 169/251/207
f 171/253/210 183/274/228 182/272/228 170/250/211
f 172/254/212 184/275/229 183/274/229 171/253/213
f 173/255/214 185/276/230 184/275/231 172/254/215
f 174/257/216 186/277/232 185/278/230 173/258/214
f 175/261/217 187/279/233 186/277/232 174/257/216
f 176/280/218 188/281/234 187/279/233 175/261/217
f 177/265/219 189/282/235 188/283/235 176/262/220
f 178/266/221 190/284/236 189/282/236 177/265/222
f 179/268/223 191/285/237 190/286/238 178/287/224
f 180/248/208 192/271/226 191/285/237 179/268/223
f 181/270/225 193/288/239 204/289/240 192/271/226
f 182/272/227 194/290/241 193/291/239 181/273/225
f 183/274/228 195/292/242 194/290/242 182/272/228
f 184/275/229 196/293/243 195/292/243 183/274/229
f 185/278/230 197/294/244 196/295/245 184/296/231
f 186/277/232 198/297/246 197/294/244 185/278/230
f 187/279/233 199/298/247 198/297/246 186/277/232
f 188/281/234 200/299/248 199/298/247 187/279/233
f 189/282/235 201/300/249 200/301/249 188/283/235
f 190/284/236 202/302/250 201/300/250 189/282/236
f 191/285/237 203/303/251 202/304/252 190/286/238
f 192/271/226 204/289/240 203/303/251 191/285/237
f 193/288/239 205/305/253 216/306/254 204/289/240
f 194/290/241 206/307/255 205/308/253 193/291/239
f 195/292/242 207/309/256 206/307/257 194/290/242
f 196/293/243 208/310/258 207/309/259 195/292/243
f 197/294/244 209/311/260 208/312/261 196/295/245
f 198/297/246 210/313/262 209/311/260 197/294/244
f 199/298/247 211/314/263 210/313/262 198/297/246
f 200/301/248 212/315/264 211/316/263 199/317/247
f 201/300/249 213/318/265 212/315/266 200/301/249
f 202/302/250 214/319/267 213/318/268 201/300/250
f 203/303/251 215/320/269 214/321/270 202/304/252
f 204/289/240 216/306/254 215/320/269 203/303/251
f 205/305/253 217/322/271 228/323/132 216/306/254
f 206/307/255 218/324/131 217/325/271 205/308/253
f 207/309/256 219/326/129 218/324/129 206/307/257
f 208/310/258 220/327/128 219/326/128 207/309/259
f 209/328/260 221/329/272 220/327/127 208/310/261
f 210/313/262 222/330/126 221/331/272 209/311/260
f 211/314/263 223/332/273 222/330/126 210/313/262
f 212/315/264 224/333/138 223/334/273 211/316/263
f 213/318/265 225/335/136 224/333/136 212/315/266
f 214/319/267 226/336/135 225/335/135 213/318/268
f 215/320/269 227/337/274 226/338/134 214/321/270
f 216/306/254 228/323/132 227/337/274 215/320/269
f 217/339/271 229/340/275 240/341/276 228/342/132
f 218/324/131 230/343/277 229/344/275 217/325/271
f 219/326/129 231/345/278 230/343/279 218/324/129
f 220/327/128 232/346/280 231/345/281 219/326/128
f 221/347/272 233/348/282 232/349/283 220/350/127
f 222/351/126 234/352/284 233/348/282 221/347/272
f 223/353/273 235/354/285 234/352/284 222/351/126
f 224/333/138 236/355/286 235/356/285 223/334/273
f 225/335/136 237/357/287 236/355/288 224/333/136
f 226/336/135 238/358/289 237/357/290 225/335/135
f 227/359/274 239/360/291 238/361/292 226/362/134
f 228/342/132 240/341/276 239/360/291 227/359/274
f 229/340/275 241/363/293 252/364/294 240/341/276
f 230/343/277 242/365/295 241/366/293 229/344/275
f 231/345/278 243/367/296 242/365/296 230/343/279
f 232/346/280 244/368/297 243/367/297 231/345/281
f 233/348/282 245/369/298 244/370/299 232/349/283
f 234/352/284 246/371/300 245/369/298 233/348/282
f 235/354/285 247/372/301 246/371/300 234/352/284
f 236/355/286 248/373/302 247/374/301 235/356/285
f 237/357/287 249/375/303 248/373/303 236/355/288
f 238/358/289 250/376/304 249/375/304 237/357/290
f 239/360/291 251/377/305 250/378/306 238/361/292
f 240/341/276 252/364/294 251/377/305 239/360/291
f 241/363/293 253/379/307 264/380/308 252/364/294
f 242/365/295 254/381/309 253/382/307 241/366/293
f 243/367/296 255/383/310 254/381/310 242/365/296
f 244/368/297 256/384/311 255/383/312 243/367/297
f 245/369/298 257/385/313 256/386/314 244/370/299
f 246/371/300 258/387/315 257/385/313 245/369/298
f 247/372/301 259/388/316 258/387/315 246/371/300
f 248/373/302 260/389/317 259/390/316 247/374/301
f 249/375/303 261/391/318 260/389/319 248/373/303
f 250/376/304 262/392/320 261/391/320 249/375/304
f 251/377/305 263/393/321 262/394/322 250/378/306
f 252/364/294 264/380/308 263/393/321 251/377/305
f 253/379/307 265/395/323 276/396/324 264/380/308
f 254/381/309 266/397/325 265/398/323 253/382/307
f 255/383/310 267/399/35 266/397/35 254/381/310
f 256/384/311 268/400/36 267/399/326 255/383/312
f 257/385/313 269/401/327 268/402/328 256/386/314
f 258/387/315 270/403/329 269/401/327 257/385/313
f 259/388/316 271/404/330 270/403/329 258/387/315
f 260/389/317 272/405/331 271/406/330 259/390/316
f 261/391/318 273/407/332 272/405/42 260/389/319
f 262/392/320 274/408/43 273/407/43 261/391/320
f 263/393/321 275/409/333 274/410/334 262/394/322
f 264/380/308 276/396/324 275/409/333 263/393/321
f 265/395/323 277/411/47 288/412/48 276/396/324
f 266/397/325 278/413/49 277/414/47 265/398/323
f 267/399/35 279/415/50 278/413/50 266/397/35
f 268/400/36 280/416/51 279/415/51 267/399/326
f 269/401/327 281/417/52 280/418/53 268/402/328
f 270/403/329 282/419/54 281/417/52 269/401/327
f 271/404/330 283/420/55 282/419/54 270/403/329
f 272/405/331 284/421/56 283/422/55 271/406/330
f 273/407/332 285/423/57 284/421/57 272/405/42
f 274/408/43 286/424/58 285/423/58 273/407/43
f 275/409/333 287/425/59 286/426/60 274/410/334
f 276/396/324 288/412/48 287/425/59 275/409/333
f 277/427/47 289/428/335 300/429/336 288/430/48
f 278/413/49 290/431/337 289/432/335 277/414/47
f 279/415/50 291/433/65 290/431/65 278/413/50
f 280/416/51 292/434/66 291/433/338 279/415/51
f 281/435/52 293/436/339 292/434/340 280/416/53
f 282/437/54 294/438/341 293/439/339 281/440/52
f 283/441/55 295/442/342 294/438/341 282/437/54
f 284/421/56 296/443/343 295/444/342 283/422/55
f 285/423/57 297/445/344 296/443/72 284/421/57
f 286/424/58 298/446/73 297/445/73 285/423/58
f 287/447/59 299/448/345 298/446/346 286/424/60
f 288/430/48 300/429/336 299/449/345 287/450/59
f 289/428/335 301/451/347 312/452/348 300/429/336
f 290/431/337 302/453/349 301/454/347 289/432/335
f 291/433/65 303/455/81 302/453/81 290/431/65
f 292/434/66 304/456/82 303/455/350 291/433/338
f 293/436/339 305/457/351 304/456/352 292/434/340
f 294/438/341 306/458/353 305/459/351 293/439/339
f 295/442/342 307/460/354 306/458/353 294/438/341
f 296/461/343 308/462/355 307/460/354 295/442/342
f 297/445/344 309/463/356 308/464/88 296/443/72
f 298/446/73 310/465/89 309/463/89 297/445/73
f 299/449/345 311/466/357 310/467/358 298/468/346
f 300/429/336 312/452/348 311/466/357 299/449/345
f 301/451/347 313/469/359 324/470/360 312/452/348
f 302/471/349 314/472/361 313/469/359 301/451/347
f 303/455/81 315/473/97 314/474/97 302/453/81
f 304/456/82 316/475/98 315/473/362 303/455/350
f 305/457/351 317/476/363 316/475/364 304/456/352
f 306/458/353 318/477/365 317/478/363 305/459/351
f 307/460/354 319/479/366 318/477/365 306/458/353
f 308/462/355 320/480/367 319/479/366 307/460/354
f 309/463/356 321/481/368 320/482/104 308/464/88
f 310/465/89 322/483/105 321/481/105 309/463/89
f 311/466/357 323/484/369 322/485/370 310/467/358
f 312/452/348 324/470/360 323/484/369 311/466/357
f 313/469/359 325/486/371 336/487/372 324/470/360
f 314/472/361 326/488/373 325/486/371 313/469/359
f 315/473/97 327/489/113 326/490/113 314/474/97
f 316/475/98 328/491/114 327/489/374 315/473/362
f 317/476/363 329/492/375 328/491/376 316/475/364
f 318/477/365 330/493/377 329/494/375 317/478/363
f 319/479/366 331/495/378 330/493/377 318/477/365
f 320/480/367 332/496/379 331/495/378 319/479/366
f 321/481/368 333/497/380 332/498/120 320/482/104
f 322/483/105 334/499/121 333/497/121 321/481/105
f 323/500/369 335/501/381 334/499/382 322/483/370
f 324/470/360 336/487/372 335/502/381 323/484/369
f 325/486/371 337/503/125 348/504/126 336/487/372
f 326/490/373 338/505/127 337/506/125 325/507/371
f 327/489/113 339/508/128 338/505/128 326/490/113
f 328/491/114 340/509/129 339/508/129 327/489/374
f 329/492/375 341/510/130 340/509/131 328/491/376
f 330/493/377 342/511/132 341/512/130 329/494/375
f 331/495/378 343/513/133 342/511/132 330/493/377
f 332/496/379 344/514/134 343/513/133 331/495/378
f 333/497/380 345/515/135 344/516/135 332/498/120
f 334/499/121 346/517/136 345/515/136 333/497/121
f 335/501/381 347/518/137 346/517/138 334/499/382
f 336/487/372 348/504/126 347/519/137 335/502/381
f 337/520/125 349/521/383 360/522/384 348/523/126
f 338/524/127 350/525/385 349/521/383 337/520/125
f 339/508/128 351/526/143 350/527/143 338/505/128
f 340/509/129 352/528/144 351/526/386 339/508/129
f 341/510/130 353/529/387 352/528/388 340/509/131
f 342/530/132 354/531/389 353/532/387 341/533/130
f 343/534/133 355/535/390 354/531/389 342/530/132
f 344/536/134 356/537/391 355/535/390 343/534/133
f 345/515/135 357/538/392 356/539/150 344/516/135
f 346/517/136 358/540/151 357/538/151 345/515/136
f 347/518/137 359/541/393 358/540/394 346/517/138
f 348/523/126 360/522/384 359/542/393 347/543/137
f 349/521/383 361/544/395 372/545/396 360/522/384
f 350/525/385 362/546/397 361/544/395 349/521/383
f 351/526/143 363/547/398 362/548/398 350/527/143
f 352/528/144 364/549/399 363/547/400 351/526/386
f 353/529/387 365/550/401 364/549/402 352/528/388
f 354/531/389 366/551/403 365/552/401 353/532/387
f 355/535/390 367/553/404 366/551/403 354/531/389
f 356/537/391 368/554/405 367/553/404 355/535/390
f 357/538/392 369/555/406 368/556/407 356/539/150
f 358/540/151 370/557/408 369/555/408 357/538/151
f 359/541/393 371/558/409 370/557/410 358/540/394
f 360/522/384 372/545/396 371/559/409 359/542/393
f 361/544/395 373/560/411 384/561/412 372/545/396
f 362/546/397 374/562/15 373/560/411 361/544/395
f 363/547/398 375/563/10 374/564/10 362/548/398
f 364/549/399 376/565/7 375/563/7 363/547/400
f 365/550/401 377/566/413 376/565/5 364/549/402
f 366/551/403 378/567/414 377/568/413 365/552/401
f 367/553/404 379/569/415 378/567/414 366/551/403
f 368/554/405 380/570/30 379/569/415 367/553/404
f 369/555/406 381/571/24 380/572/24 368/556/407
f 370/557/408 382/573/22 381/571/22 369/555/408
f 371/558/409 383/574/416 382/573/20 370/557/410
f 372/545/396 384/561/412 383/575/416 371/559/409
f 8/576/417 7/577/417 385/578/417
f 11/579/417 10/580/417 385/578/417
f 5/581/417 4/582/417 385/578/417
f 12/583/417 11/579/417 385/578/417
f 3/584/417 2/585/417 385/578/417
f 1/586/417 12/583/417 385/578/417
f 9/587/417 8/576/417 385/578/417
f 4/582/417 3/584/417 385/578/417
f 10/580/417 9/587/417 385/578/417
f 7/577/417 6/588/417 385/578/417
f 2/585/417 1/586/417 385/578/417
f 6/588/417 5/581/417 385/578/417
f 374/589/417 375/590/417 386/591/417
f 380/592/417 381/593/417 386/591/417
f 379/594/417 380/592/417 386/591/417
f 377/595/417 378/596/417 386/591/417
f 384/597/417 373/598/417 386/591/417
f 383/599/417 384/597/417 386/591/417
f 378/596/417 379/594/417 386/591/417
f 382/600/417 383/599/417 386/591/417
f 375/590/417 376/601/417 386/591/417
f 373/598/417 374/589/417 386/591/417
f 376/601/417 377/595/417 386/591/417
f 381/593/417 382/600/417 386/591/417
